<?xml version="1.0" encoding="utf-8"?>
<!DOCTYPE svg PUBLIC "-//W3C//DTD SVG 1.1//EN" "http://www.w3.org/Graphics/SVG/1.1/DTD/svg11.dtd">
<svg version="1.1" id="Layer_1" xmlns="http://www.w3.org/2000/svg" xmlns:xlink="http://www.w3.org/1999/xlink" x="0px" y="0px"
	 viewBox="0 0 190 55" enable-background="new 0 0 190 55" xml:space="preserve">
<circle fill="#AEAEAE" cx="95" cy="27.5" r="27.5"/>
<path fill="#FFFFFF" d="M86.3,27.7c4.5,5.3,12.8,5.5,17.4,0c1.4,1,2.5,2.3,3.5,3.7c2.3,3.3,3.6,6.9,4.1,10.9
	c0.1,0.9,0.1,1.8,0.2,2.7c0,0.3-0.1,0.5-0.4,0.6c-2.9,0.9-5.8,1.4-8.8,1.8c-3,0.4-6,0.6-9,0.5c-4.8-0.1-9.5-0.8-14.1-2.2
	c-0.6-0.2-0.8-0.4-0.7-1c0.3-6.1,2.1-11.5,6.5-15.9C85.4,28.5,85.8,28.1,86.3,27.7z"/>
<path fill="#FFFFFF" d="M85.9,20.4c0.1-5.1,4.3-9.1,9.4-9c5.2,0.1,9.3,4.6,8.8,9.9c-0.4,4.7-4.4,8.5-9.5,8.3
	C89.7,29.5,85.7,25.2,85.9,20.4z"/>
</svg>
